<svg xmlns="http://www.w3.org/2000/svg" width="512" height="512" viewBox="0 0 300 300"><g><path d="M50 263.4L27.7 12.7h245.6l-22.4 250.7-100.6 27.9zm0 0" fill="#1572b6"/><path d="M150.5 270l81.2-22.6L251 33.2H150.5zm0 0" fill="#33a9dc"/><path d="M150.5 124h40.7l2.8-31.5h-43.5V61.8h77l-.7 8.2-7.5 84.8h-68.8zm0 0" fill="#fff"/><path d="M150.7 203.9h-.2l-34.2-9.2-2.2-24.5H83.2l4.3 48.2 63 17.5h.2zm0 0" fill="#ebebeb"/><path d="M188.5 153.5l-3.7 41.2-34.3 9.2v32l63-17.5.5-5.2 5.4-59.7zm0 0" fill="#fff"/><path d="M150.6 61.8v30.7H76.3l-.6-6.9L74.3 70l-.8-8.2zm-.1 62.2v30.8h-33.8l-.7-7-1.4-15.5-.7-8.3zm0 0" fill="#ebebeb"/></g></svg>
