<svg xmlns="http://www.w3.org/2000/svg" width="512" height="512" viewBox="0 0 300 300"><path d="M50.4 263.6L28 12.7h246l-22.4 251L150.7 292" fill="#e34f26"/><path d="M151.3 270.2l81.2-22.4L251.6 33H151.3" fill="#ef652a"/><path d="M151.3 126.2h-41l-2.7-31.6h43.7V64H73.8l.6 8.2 7.6 85h69.3zm0 80.2h-.6l-34.3-9.3-2.2-24.5H83.6l3.9 48.5 63.2 17.4h.6z" fill="#ebebeb"/><path d="M150.7 126.2v31H189l-3.8 39.9-34.4 9.3v32.1l63.3-17.4.5-5.5 7.1-81.2 1.1-8.2H214zm0-62.2v30.6h74.7l.6-6.6 1.6-15.8.6-8.2z" fill="#fff"/></svg>
