<svg width="512" height="512" viewBox="0 0 126 126" xmlns="http://www.w3.org/2000/svg"><path d="M12.6 13h99.8v100H12.6z" fill="#f0db4f"/><path d="M104.3 89c-.8-4.5-3.7-8.3-12.5-11.9-3-1.4-6.5-2.4-7.5-4.7-.4-1.4-.4-2.1-.2-3 .7-2.6 3.8-3.4 6.3-2.7a7 7 0 0 1 4 3.8l7.4-4.7a18.6 18.6 0 0 0-2.4-3.2c-2.6-2.9-6.1-4.4-11.8-4.3l-3 .4c-2.7.7-5.4 2.2-7 4.2A13 13 0 0 0 80 81.5c5.6 4.3 14 5.2 15 9.2 1 4.9-3.6 6.5-8.1 5.9-3.4-.7-5.3-2.4-7.3-5.6L72 95.4c.9 2 1.8 3 3.4 4.6 7.2 7.4 25.3 7 28.6-4 .1-.5 1-3 .3-7zM66.9 59h-9.4v24c0 5.2.2 10-.6 11.4-1.4 2.8-4.9 2.4-6.5 1.9a8 8 0 0 1-3.5-3.6l-.5-.8-7.6 4.6a15 15 0 0 0 5.5 6.3c3.6 2.2 8.4 2.8 13.4 1.7 3.2-1 6-3 7.5-6C67.3 94.7 67 90 67 84.7V59z" fill="#323330"/><g aria-label="MODULE" style="font-size:10.8345px;line-height:1.25;font-family:EnterCommand;-inkscape-font-specification:EnterCommand;letter-spacing:-.790013px;fill:#323330;stroke-width:.246094"><path d="M19.87 45.07h1.45v-2.76c0-.5-.05-1.29-.05-1.29s.44.65.79 1.04l1.46 1.64h.14l1.46-1.64c.35-.39.8-1.04.8-1.04s-.06.8-.06 1.29v2.76h1.46v-7.44h-.13l-3.57 3.99-3.63-4h-.12zM31.64 45.17c2.12 0 3.81-1.6 3.81-3.78a3.73 3.73 0 0 0-3.81-3.78 3.73 3.73 0 0 0-3.82 3.78 3.73 3.73 0 0 0 3.82 3.78zm0-1.35c-1.35 0-2.26-1.06-2.26-2.43 0-1.38.91-2.43 2.26-2.43 1.34 0 2.25 1.05 2.25 2.43 0 1.37-.9 2.43-2.25 2.43zM35.95 45.07h2.26c2.28 0 3.88-1.5 3.88-3.68s-1.61-3.68-3.88-3.68h-2.26zm1.52-1.33v-4.7h.67c1.63 0 2.38.97 2.38 2.35 0 1.37-.75 2.35-2.38 2.35zM45.54 45.17c1.68 0 2.97-.9 2.97-2.76v-4.7h-1.52v4.61c0 1.07-.45 1.48-1.45 1.48s-1.47-.4-1.47-1.48v-4.61h-1.52v4.7c0 1.86 1.29 2.76 2.99 2.76zM49.22 45.07h4.86v-1.33h-3.34v-6.03h-1.52zM54.51 45.07h5.03v-1.33h-3.51v-1.06h2.96v-1.3h-2.96v-2.34h3.36V37.7H54.5z" style="font-family:'Neutra Text';-inkscape-font-specification:'Neutra Text'"/></g><g aria-label="ESM" style="font-size:23.625px;line-height:1.25;font-family:EnterCommand;-inkscape-font-specification:EnterCommand;letter-spacing:-1.72266px;fill:#323330;stroke-width:.246094"><path d="M19.87 36.27h10.96v-2.9h-7.65v-2.32h6.45V28.2h-6.45v-5.1h7.32v-2.9H19.87zM36.93 36.48c3.14 0 5.48-1.63 5.48-4.6 0-2.77-1.58-4-4.4-5.2l-.82-.36c-1.42-.61-2.03-1.01-2.03-2 0-.8.61-1.42 1.58-1.42.95 0 1.56.4 2.13 1.41l2.57-1.65c-1.09-1.91-2.6-2.64-4.7-2.64-2.95 0-4.84 1.89-4.84 4.37 0 2.69 1.58 3.96 3.97 4.98l.82.36c1.51.66 2.41 1.06 2.41 2.2 0 .94-.87 1.62-2.24 1.62-1.63 0-2.55-.85-3.26-2l-2.7 1.55c.97 1.92 2.96 3.38 6.03 3.38zM43.26 36.27h3.17v-6.03c0-1.08-.12-2.8-.12-2.8s.97 1.41 1.72 2.26l3.2 3.57h.3l3.2-3.57c.75-.85 1.72-2.27 1.72-2.27s-.12 1.73-.12 2.81v6.03h3.19V20.04h-.29l-7.8 8.7-7.9-8.7h-.27z" style="font-family:'Neutra Text';-inkscape-font-specification:'Neutra Text'"/></g></svg>