<svg xmlns="http://www.w3.org/2000/svg" width="512" height="512" viewBox="0 0 126 126"><path d="M12.6 13h99.8V113H12.6z" fill="#f0db4f"/><path d="M104.3 89c-.8-4.5-3.7-8.3-12.5-11.9-3-1.4-6.5-2.4-7.5-4.7-.4-1.4-.4-2.1-.2-3 .7-2.6 3.8-3.4 6.3-2.7a7 7 0 014 3.8l7.4-4.7a18.6 18.6 0 00-2.4-3.2c-2.6-2.9-6.1-4.4-11.8-4.3l-3 .4c-2.7.7-5.4 2.2-7 4.2A13 13 0 0080 81.5c5.6 4.3 14 5.2 15 9.2 1 4.9-3.6 6.5-8.1 5.9-3.4-.7-5.3-2.4-7.3-5.6L72 95.4c.9 2 1.8 3 3.4 4.6 7.2 7.4 25.3 7 28.6-4 .1-.5 1-3 .3-7zM66.9 59h-9.4v24c0 5.2.2 10-.6 11.4-1.4 2.8-4.9 2.4-6.5 1.9a8 8 0 01-3.5-3.6l-.5-.8-7.6 4.6a15 15 0 005.5 6.3c3.6 2.2 8.4 2.8 13.4 1.7 3.2-1 6-3 7.5-6C67.3 94.7 67 90 67 84.7V59z" fill="#323330"/></svg>
