<?xml version="1.0" encoding="UTF-8" standalone="no"?>
<svg
   width="512"
   height="512"
   viewBox="0 0 126 126"
   version="1.1"
   id="svg6"
   sodipodi:docname="module-js.svg"
   inkscape:version="1.1 (c68e22c387, 2021-05-23)"
   xmlns:inkscape="http://www.inkscape.org/namespaces/inkscape"
   xmlns:sodipodi="http://sodipodi.sourceforge.net/DTD/sodipodi-0.dtd"
   xmlns="http://www.w3.org/2000/svg"
   xmlns:svg="http://www.w3.org/2000/svg">
  <defs
     id="defs10" />
  <sodipodi:namedview
     id="namedview8"
     pagecolor="#ffffff"
     bordercolor="#666666"
     borderopacity="1.0"
     inkscape:pageshadow="2"
     inkscape:pageopacity="0.0"
     inkscape:pagecheckerboard="0"
     showgrid="false"
     inkscape:zoom="1.4609375"
     inkscape:cx="279.61497"
     inkscape:cy="255.65775"
     inkscape:window-width="1920"
     inkscape:window-height="1017"
     inkscape:window-x="-8"
     inkscape:window-y="-8"
     inkscape:window-maximized="1"
     inkscape:current-layer="svg6" />
  <path
     d="M12.6 13h99.8V113H12.6z"
     fill="#f0db4f"
     id="path2" />
  <path
     d="M104.3 89c-.8-4.5-3.7-8.3-12.5-11.9-3-1.4-6.5-2.4-7.5-4.7-.4-1.4-.4-2.1-.2-3 .7-2.6 3.8-3.4 6.3-2.7a7 7 0 014 3.8l7.4-4.7a18.6 18.6 0 00-2.4-3.2c-2.6-2.9-6.1-4.4-11.8-4.3l-3 .4c-2.7.7-5.4 2.2-7 4.2A13 13 0 0080 81.5c5.6 4.3 14 5.2 15 9.2 1 4.9-3.6 6.5-8.1 5.9-3.4-.7-5.3-2.4-7.3-5.6L72 95.4c.9 2 1.8 3 3.4 4.6 7.2 7.4 25.3 7 28.6-4 .1-.5 1-3 .3-7zM66.9 59h-9.4v24c0 5.2.2 10-.6 11.4-1.4 2.8-4.9 2.4-6.5 1.9a8 8 0 01-3.5-3.6l-.5-.8-7.6 4.6a15 15 0 005.5 6.3c3.6 2.2 8.4 2.8 13.4 1.7 3.2-1 6-3 7.5-6C67.3 94.7 67 90 67 84.7V59z"
     fill="#323330"
     id="path4" />
  <g
     aria-label="MODULE"
     id="text2105"
     style="font-size:10.8345px;line-height:1.25;font-family:EnterCommand;-inkscape-font-specification:EnterCommand;letter-spacing:-0.790013px;fill:#323330;stroke-width:0.246094">
    <path
       d="m 19.869891,45.072624 h 1.451823 v -2.762797 c 0,-0.498387 -0.05417,-1.289306 -0.05417,-1.289306 0,0 0.444215,0.65007 0.790919,1.040112 l 1.462657,1.63601 h 0.140849 l 1.462657,-1.63601 c 0.346704,-0.390042 0.790919,-1.040112 0.790919,-1.040112 0,0 -0.05417,0.790919 -0.05417,1.289306 v 2.762797 h 1.462658 v -7.443302 h -0.130014 l -3.575385,3.987097 -3.629558,-3.987097 h -0.119179 z"
       style="font-family:'Neutra Text';-inkscape-font-specification:'Neutra Text'"
       id="path19502" />
    <path
       d="m 31.637063,45.170135 c 2.123562,0 3.813744,-1.603506 3.813744,-3.781241 0,-2.177734 -1.690182,-3.781241 -3.813744,-3.781241 -2.123562,0 -3.813744,1.603507 -3.813744,3.781241 0,2.177735 1.690182,3.781241 3.813744,3.781241 z m 0,-1.354313 c -1.343478,0 -2.253576,-1.050946 -2.253576,-2.426928 0,-1.375981 0.910098,-2.426928 2.253576,-2.426928 1.343478,0 2.253576,1.050947 2.253576,2.426928 0,1.375982 -0.910098,2.426928 -2.253576,2.426928 z"
       style="font-family:'Neutra Text';-inkscape-font-specification:'Neutra Text'"
       id="path19504" />
    <path
       d="m 35.950091,45.072624 h 2.264411 c 2.275245,0 3.878751,-1.505995 3.878751,-3.68373 0,-2.177734 -1.614341,-3.68373 -3.878751,-3.68373 h -2.264411 z m 1.51683,-1.332643 v -4.702173 h 0.671739 c 1.63601,0 2.38359,0.975105 2.38359,2.351086 0,1.375982 -0.74758,2.351087 -2.38359,2.351087 z"
       style="font-family:'Neutra Text';-inkscape-font-specification:'Neutra Text'"
       id="path19506" />
    <path
       d="m 45.539524,45.170135 c 1.679348,0 2.968653,-0.899264 2.968653,-2.762798 v -4.702173 h -1.51683 v 4.615497 c 0,1.072616 -0.455049,1.484327 -1.451823,1.484327 -1.007608,0 -1.473492,-0.411711 -1.473492,-1.484327 v -4.615497 h -1.51683 v 4.702173 c 0,1.863534 1.289306,2.762798 2.990322,2.762798 z"
       style="font-family:'Neutra Text';-inkscape-font-specification:'Neutra Text'"
       id="path19508" />
    <path
       d="m 49.224148,45.072624 h 4.853856 v -1.332643 h -3.337026 v -6.034817 h -1.51683 z"
       style="font-family:'Neutra Text';-inkscape-font-specification:'Neutra Text'"
       id="path19510" />
    <path
       d="m 54.512278,45.072624 h 5.027208 V 43.739981 H 56.029108 V 42.6782 h 2.957819 v -1.30014 h -2.957819 v -2.340252 h 3.358695 v -1.332644 h -4.875525 z"
       style="font-family:'Neutra Text';-inkscape-font-specification:'Neutra Text'"
       id="path19512" />
  </g>
  <g
     aria-label="ESM"
     id="text17150"
     style="font-size:23.625px;line-height:1.25;font-family:EnterCommand;-inkscape-font-specification:EnterCommand;letter-spacing:-1.72266px;fill:#323330;stroke-width:0.246094">
    <path
       d="m 19.869889,36.269218 h 10.962 v -2.905875 h -7.6545 v -2.31525 h 6.449625 v -2.835 h -6.449625 v -5.103 h 7.32375 v -2.905875 h -10.63125 z"
       style="font-family:'Neutra Text';-inkscape-font-specification:'Neutra Text'"
       id="path19495" />
    <path
       d="m 36.929081,36.481843 c 3.142125,0 5.481,-1.630125 5.481,-4.606875 0,-2.764125 -1.582875,-3.992625 -4.39425,-5.1975 l -0.826875,-0.354375 c -1.4175,-0.61425 -2.03175,-1.015875 -2.03175,-2.008125 0,-0.80325 0.61425,-1.4175 1.582875,-1.4175 0.945,0 1.55925,0.401625 2.12625,1.4175 l 2.575125,-1.65375 c -1.08675,-1.913625 -2.59875,-2.646 -4.701375,-2.646 -2.953125,0 -4.843125,1.89 -4.843125,4.370625 0,2.69325 1.582875,3.969 3.969,4.984875 l 0.826875,0.354375 c 1.512,0.6615 2.40975,1.063125 2.40975,2.197125 0,0.945 -0.874125,1.630125 -2.244375,1.630125 -1.630125,0 -2.5515,-0.8505 -3.26025,-2.008125 l -2.69325,1.55925 c 0.968625,1.913625 2.953125,3.378375 6.024375,3.378375 z"
       style="font-family:'Neutra Text';-inkscape-font-specification:'Neutra Text'"
       id="path19497" />
    <path
       d="m 43.262517,36.269218 h 3.16575 v -6.024375 c 0,-1.08675 -0.118125,-2.811375 -0.118125,-2.811375 0,0 0.968625,1.4175 1.724625,2.268 l 3.189375,3.567375 h 0.307125 l 3.189375,-3.567375 c 0.756,-0.8505 1.724625,-2.268 1.724625,-2.268 0,0 -0.118125,1.724625 -0.118125,2.811375 v 6.024375 h 3.189375 V 20.038843 h -0.2835 l -7.79625,8.694 -7.914375,-8.694 h -0.259875 z"
       style="font-family:'Neutra Text';-inkscape-font-specification:'Neutra Text'"
       id="path19499" />
  </g>
</svg>
